HIERARCHY
ROOT SpineBase
{
  OFFSET 0.000000 0.000000 0.000000
  CHANNELS 6 Xposition Yposition Zposition Zrotation Xrotation Yrotation
  JOINT SpineMid
  {
    OFFSET 0.000000 32.545978 0.000000
    CHANNELS 3 Zrotation Xrotation Yrotation
    JOINT SpineShoulder
    {
      OFFSET 0.856883 23.999059 -1.163988
      CHANNELS 3 Zrotation Xrotation Yrotation
      JOINT Neck
      {
        OFFSET 0.519088 7.928975 -0.789388
        CHANNELS 3 Zrotation Xrotation Yrotation
        JOINT Head
        {
          OFFSET 1.885961 10.722609 6.209617
          CHANNELS 3 Zrotation Xrotation Yrotation
          End Site
          {
            OFFSET 0 0 0
          }
        }
      }
      JOINT ShoulderLeft
      {
        OFFSET -4.558421 -3.989291 -16.807748
        CHANNELS 3 Zrotation Xrotation Yrotation
        JOINT ElbowLeft
        {
          OFFSET -2.402731 -26.358543 -8.463556
          CHANNELS 3 Zrotation Xrotation Yrotation
          JOINT WristLeft
          {
            OFFSET 4.658301 -20.195244 -1.778901
            CHANNELS 3 Zrotation Xrotation Yrotation
            JOINT HandLeft
            {
              OFFSET -0.174970 -8.830356 -0.900676
              CHANNELS 3 Zrotation Xrotation Yrotation
              JOINT HandTipLeft
              {
                OFFSET 1.295067 -8.645702 1.708293
                CHANNELS 3 Zrotation Xrotation Yrotation
                End Site
                {
                  OFFSET 0 0 0
                }
              }
              JOINT ThumbLeft
              {
                OFFSET -4.012428 -2.216593 1.106270
                CHANNELS 3 Zrotation Xrotation Yrotation
                End Site
                {
                  OFFSET 0 0 0
                }
              }
            }
          }
        }
      }
      JOINT ShoulderRight
      {
        OFFSET 6.691153 -6.286321 14.024138
        CHANNELS 3 Zrotation Xrotation Yrotation
        JOINT ElbowRight
        {
          OFFSET 0.844527 -23.641049 6.069676
          CHANNELS 3 Zrotation Xrotation Yrotation
          JOINT WristRight
          {
            OFFSET -4.951410 -22.193981 0.612855
            CHANNELS 3 Zrotation Xrotation Yrotation
            JOINT HandRight
            {
              OFFSET 1.953081 -14.902302 8.092966
              CHANNELS 3 Zrotation Xrotation Yrotation
              JOINT HandTipRight
              {
                OFFSET 0.836086 -2.040392 0.023875
                CHANNELS 3 Zrotation Xrotation Yrotation
                End Site
                {
                  OFFSET 0 0 0
                }
              }
              JOINT ThumbRight
              {
                OFFSET -1.199659 0.840021 -4.556187
                CHANNELS 3 Zrotation Xrotation Yrotation
                End Site
                {
                  OFFSET 0 0 0
                }
              }
            }
          }
        }
      }
    }
  }
  JOINT HipLeft
  {
    OFFSET -1.710348 1.502188 -9.845558
    CHANNELS 3 Zrotation Xrotation Yrotation
    JOINT KneeLeft
    {
      OFFSET -9.797611 -36.183370 -5.259669
      CHANNELS 3 Zrotation Xrotation Yrotation
      JOINT AnkleLeft
      {
        OFFSET -7.526399 -38.959327 5.681123
        CHANNELS 3 Zrotation Xrotation Yrotation
        JOINT FootLeft
        {
          OFFSET 4.375734 -7.480086 -2.213420
          CHANNELS 3 Zrotation Xrotation Yrotation
          End Site
          {
            OFFSET 0 0 0
          }
        }
      }
    }
  }
  JOINT HipRight
  {
    OFFSET 3.262775 0.335711 2.638715
    CHANNELS 3 Zrotation Xrotation Yrotation
    JOINT KneeRight
    {
      OFFSET -5.309250 -41.084740 6.817431
      CHANNELS 3 Zrotation Xrotation Yrotation
      JOINT AnkleRight
      {
        OFFSET -12.318649 -36.014046 4.801666
        CHANNELS 3 Zrotation Xrotation Yrotation
        JOINT FootRight
        {
          OFFSET 4.105609 -7.595319 -4.481592
          CHANNELS 3 Zrotation Xrotation Yrotation
          End Site
          {
            OFFSET 0 0 0
          }
        }
      }
    }
  }
}
MOTION
Frames: 5
Frame Time: 0.033333
-75.506433 85.032172 321.984722 -0.000000 0.000000 -68.280086 -0.000000 0.000000 68.280086 -0.000000 0.000000 0.000000 -0.000000 0.000000 0.000000 0.000000 0.000000 0.000000 -0.000000 0.000000 0.000000 -0.000000 0.000000 0.000000 -0.000000 0.000000 0.000000 -0.000000 0.000000 0.000000 0.000000 0.000000 0.000000 0.000000 0.000000 0.000000 -0.000000 0.000000 0.000000 -0.000000 0.000000 0.000000 -0.000000 0.000000 0.000000 -0.000000 0.000000 0.000000 0.000000 0.000000 0.000000 0.000000 0.000000 0.000000 -0.000000 0.000000 68.280086 -0.000000 0.000000 0.000000 -0.000000 0.000000 0.000000 0.000000 0.000000 0.000000 -0.000000 0.000000 68.280086 -0.000000 0.000000 0.000000 -0.000000 0.000000 0.000000 0.000000 0.000000 0.000000
-76.974780 85.140695 322.039134 -1.942778 -0.365292 -67.847565 0.240594 1.134657 67.805700 0.801069 0.160653 0.032005 0.107443 -0.885630 0.094822 0.000000 0.000000 0.000000 0.692147 1.472357 -0.364059 -0.031379 1.341503 0.935390 2.488012 -2.456874 -0.790988 -1.925860 0.857370 0.751768 0.000000 0.000000 0.000000 0.000000 0.000000 0.000000 -0.000000 0.000000 0.000000 -0.000000 0.000000 0.000000 -0.000000 0.000000 0.000000 -2.343072 -4.575267 -2.012543 0.000000 0.000000 0.000000 0.000000 0.000000 0.000000 1.085067 3.630131 67.534103 -1.828145 -0.009031 0.266915 -0.249034 1.230679 0.794794 0.000000 0.000000 0.000000 0.955564 4.181261 68.143327 -2.291560 -0.314795 -0.344869 -3.953237 2.427165 3.751245 0.000000 0.000000 0.000000
-78.223023 85.262096 322.132211 -3.557382 -0.651399 -67.400600 0.438526 2.036194 67.309278 1.508760 0.274928 0.059780 0.083398 -1.759454 0.264861 0.000000 0.000000 0.000000 1.225360 2.660458 -0.660199 -0.101132 2.310218 1.647352 4.484019 -4.691042 -1.201287 -3.309287 1.923693 1.359154 0.000000 0.000000 0.000000 0.000000 0.000000 0.000000 -0.000000 0.000000 0.000000 -0.000000 0.000000 0.000000 -0.000000 0.000000 0.000000 -4.413923 -7.787398 -3.601016 0.000000 0.000000 0.000000 0.000000 0.000000 0.000000 2.094899 6.693020 66.736575 -3.424182 -0.029168 0.500880 -0.588610 2.132155 1.428902 0.000000 0.000000 0.000000 1.754494 7.740057 67.877795 -5.046420 -1.015103 -0.636712 -6.566102 4.331097 6.856856 0.000000 0.000000 0.000000
-79.251163 85.396376 322.263954 -4.838714 -0.857231 -66.950889 0.587370 2.700420 66.811568 2.123479 0.342621 0.084488 -0.069418 -2.619628 0.506095 0.000000 0.000000 0.000000 1.592855 3.562997 -0.878251 -0.161795 2.978611 2.158434 5.951276 -6.747400 -1.355745 -4.151485 3.167103 1.820749 0.000000 0.000000 0.000000 0.000000 0.000000 0.000000 0.780131 0.342689 0.210315 -0.781397 -0.339791 -0.214965 -0.000000 0.000000 0.000000 -6.214208 -9.938574 -4.795418 0.000000 0.000000 0.000000 0.000000 0.000000 0.000000 3.013665 9.183853 65.932924 -4.784943 -0.057575 0.701244 -1.010890 2.720439 1.911113 0.000000 0.000000 0.000000 2.377680 10.657025 67.532939 -6.917853 -1.578581 -0.868779 -9.064502 5.293035 9.187648 0.000000 0.000000 0.000000
-80.059200 85.543535 322.434363 -5.783830 -0.982298 -66.506702 0.680096 3.125779 66.327702 1.617290 0.571134 -0.000551 0.687540 -3.673088 0.931123 0.000000 0.000000 0.000000 2.808167 3.975248 -0.885865 -0.180446 3.406080 2.484929 6.863762 -8.672586 -1.350298 -4.461491 4.558737 2.129925 0.000000 0.000000 0.000000 0.000000 0.000000 0.000000 2.061611 0.425345 0.404411 -1.037892 -0.625526 -0.294173 0.470954 1.044925 0.390138 -8.353737 -12.237248 -6.180658 0.000000 0.000000 0.000000 0.000000 0.000000 0.000000 3.819661 11.103692 65.162249 -5.909187 -0.091800 0.867806 -1.512438 3.006600 2.246094 0.000000 0.000000 0.000000 2.797271 12.919704 67.149051 -8.337136 -2.192738 -1.035789 -10.969743 5.608103 10.710787 0.000000 0.000000 0.000000
